<?xml version="1.0" encoding="iso-8859-1"?>
<!-- Generator: Adobe Illustrator 16.0.0, SVG Export Plug-In . SVG Version: 6.00 Build 0)  -->
<!DOCTYPE svg PUBLIC "-//W3C//DTD SVG 1.1//EN" "http://www.w3.org/Graphics/SVG/1.1/DTD/svg11.dtd">
<svg version="1.1" id="Layer_1" xmlns="http://www.w3.org/2000/svg" xmlns:xlink="http://www.w3.org/1999/xlink" x="0px" y="0px"
	 width="159.524px" height="40.952px" viewBox="0 0 159.524 40.952" style="enable-background:new 0 0 159.524 40.952;"
	 xml:space="preserve">
<g>
	<g>
		<g>
			<g>
				<g>
					<path style="fill:#A11D20;" d="M13.289,36.747H2.043V18.201h4.86v14.838h8.543L13.289,36.747z"/>
					<path style="fill:#A11D20;" d="M25.816,37.222c-6.466,0-10.273-4.183-10.273-9.745c0-5.44,3.833-9.748,10.167-9.748
						c6.411,0,10.116,4.441,10.116,9.64C35.825,32.494,32.276,37.222,25.816,37.222z M30.7,27.528c0-3.572-1.892-6.227-4.991-6.227
						c-3.047,0-5.046,2.628-5.046,6.147c0,3.415,1.896,6.094,5.046,6.094C29.149,33.543,30.7,30.335,30.7,27.528z"/>
					<path style="fill:#A11D20;" d="M54.888,18.202v11.188c0,1.156-0.054,2.893-0.869,4.386c-1.471,2.684-4.598,3.444-7.618,3.444
						c-3.176,0-5.069-0.943-6.091-1.76c-2.29-1.786-2.339-4.414-2.339-5.702V18.202h4.833v10.585c0,2.625,0.474,4.912,3.673,4.912
						c2.944,0,3.604-2.022,3.604-4.547v-10.95H54.888z"/>
					<path style="fill:#A11D20;" d="M62.93,36.747h-4.856V18.202h4.856V36.747z"/>
					<path style="fill:#A11D20;" d="M66.239,31.939c0.369,0.292,0.839,0.652,1.733,1.074c0.998,0.451,2.13,0.763,3.097,0.763
						c0.922,0,1.604-0.259,2.022-0.604c0.423-0.364,0.715-0.968,0.715-1.603c0-1.364-1.133-1.864-2.129-2.313l-1.053-0.416
						c-1.366-0.58-4.333-1.893-4.333-5.334c0-2.68,1.998-5.778,6.727-5.778c1.73,0,3.179,0.338,4.726,1.077v3.969
						c-1.234-1.057-2.572-1.658-4.201-1.658c-1.971,0-2.474,1.235-2.474,1.995c0,1.291,1.131,1.788,2.263,2.312l1.342,0.551
						c1.31,0.604,3.989,1.841,3.989,5.339c0,3.146-2.521,5.906-6.958,5.906c-0.685,0-2.944-0.081-5.466-1.131V31.939z"/>
					<path style="fill:#A11D20;" d="M89.011,38.859L89.011,38.859l-9.521-20.657h5.28l4.439,9.948l4.571-9.948h4.856L89.011,38.859z
						"/>
					<path style="fill:#A11D20;" d="M105.453,36.747h-4.861V18.202h4.861V36.747z"/>
					<path style="fill:#A11D20;" d="M120.396,36.747H109.15V18.202h4.862v14.837h8.537L120.396,36.747z"/>
					<path style="fill:#A11D20;" d="M135.25,36.747h-11.242V18.202h4.858v14.837h8.54L135.25,36.747z"/>
					<path style="fill:#A11D20;" d="M150.211,36.747H138.89V18.202h12.031v3.654h-7.196v3.542h6.174v3.622h-6.174v4.047h8.589
						L150.211,36.747z"/>
				</g>
				<g>
					<path d="M9.709,3.676v5.483c0,0.624-0.038,1.336-0.475,2.036c-0.688,1.123-2.061,1.526-3.398,1.526
						c-1.262,0-2.199-0.363-2.8-0.863C2.04,11.019,2,9.884,2,9.146v-5.47h1.649V9.21c0,1.257,0.575,2.286,2.225,2.286
						c1.724,0,2.199-1.162,2.199-2.437V3.676H9.709z"/>
					<path d="M23.797,12.496h-0.574l-5.744-6.37l0.048,6.37h-1.623v-8.82h1.537l4.805,5.47l-0.049-5.47h1.6V12.496z"/>
					<path d="M32.587,12.496h-1.643v-8.82h1.643V12.496z"/>
					<path d="M43.956,12.496h-1.523l-3.509-8.82h1.808l2.54,6.897l2.611-6.897h1.633L43.956,12.496z"/>
					<path d="M59.083,12.496h-5.021v-8.82h5.173v1.25h-3.536v2.347h3.048v1.249h-3.048v2.712h4.109L59.083,12.496z"/>
					<path d="M73.221,12.496h-1.837L69.049,8.66c-0.513,0.052-0.599,0.052-1.349,0.052v3.784h-1.624v-8.82h2.897
						c0.401,0,0.812,0.012,1.238,0.113c1.338,0.322,1.833,1.389,1.833,2.3c0,1.411-1.008,1.996-1.396,2.221L73.221,12.496z
						 M69.225,7.535c0.784-0.149,1.159-0.712,1.159-1.349c0-0.96-0.735-1.311-1.572-1.311h-1.111v2.698
						C67.701,7.573,68.939,7.589,69.225,7.535z"/>
					<path d="M78.567,10.683c0.7,0.476,1.512,0.813,2.358,0.813c1.239,0,1.713-0.763,1.713-1.362c0-0.875-0.763-1.173-1.372-1.422
						l-0.564-0.226c-0.525-0.242-1.11-0.499-1.547-1.011c-0.228-0.262-0.537-0.75-0.537-1.465c0-1.321,1.097-2.559,3.133-2.559
						c1.111,0,1.886,0.337,2.174,0.464v1.486c-0.288-0.223-0.973-0.752-2.07-0.752c-1.128,0-1.541,0.674-1.541,1.226
						c0,0.798,0.802,1.151,1.452,1.411l0.626,0.263c0.512,0.241,1.087,0.5,1.485,1.013c0.271,0.337,0.499,0.851,0.499,1.461
						c0,1.484-1.253,2.684-3.322,2.685c-0.56,0-1.452-0.087-2.486-0.499V10.683z"/>
					<path d="M92.478,12.496h-1.646v-8.82h1.646V12.496z"/>
					<path d="M102.972,12.496h-1.637v-7.57h-2.697V3.665h7.02v1.261h-2.686V12.496z"/>
					<path d="M115.65,12.496h-1.661V9.161l-3.213-5.485h1.816l2.298,3.985l2.273-3.985h1.685l-3.198,5.485V12.496z"/>
					<path d="M135.785,12.72c-2.91,0-4.733-1.997-4.733-4.611c0-2.485,1.76-4.658,4.682-4.658c2.851,0,4.698,2.06,4.698,4.597
						C140.431,10.573,138.679,12.72,135.785,12.72z M138.679,8.098c0-2.009-1.245-3.422-2.934-3.422
						c-1.724,0-2.947,1.461-2.947,3.41c0,1.849,1.125,3.375,2.971,3.375C137.683,11.461,138.679,9.735,138.679,8.098z"/>
					<path d="M147.323,12.496h-1.646V3.665h5.245v1.247h-3.599v2.459h3.112v1.262h-3.112V12.496z"/>
				</g>
			</g>
		</g>
	</g>
	<g>
		<path d="M155.532,36.74c-0.955,0-1.831-0.746-1.831-1.835c0-1.057,0.841-1.836,1.831-1.836c1.062,0,1.841,0.836,1.841,1.832
			C157.373,35.922,156.573,36.74,155.532,36.74z M157.207,34.901c0-0.909-0.711-1.666-1.665-1.666c-0.943,0-1.676,0.753-1.676,1.67
			c0,0.938,0.753,1.671,1.67,1.671C156.48,36.576,157.207,35.828,157.207,34.901z M155.675,33.735c0.355,0,0.748,0.134,0.748,0.593
			c0,0.289-0.181,0.47-0.475,0.547c0.186,0.082,0.278,0.17,0.329,0.484c0.053,0.35,0.073,0.48,0.177,0.689h-0.47
			c-0.021-0.04-0.057-0.118-0.092-0.324c-0.012-0.046-0.048-0.299-0.057-0.354c-0.068-0.361-0.243-0.361-0.666-0.361v1.04h-0.413
			v-2.313H155.675z M155.175,34.679h0.34c0.309,0,0.496-0.072,0.496-0.319c0-0.284-0.228-0.305-0.449-0.305h-0.387V34.679z"/>
	</g>
</g>
</svg>
