<?xml version="1.0" encoding="iso-8859-1"?>
<!-- Generator: Adobe Illustrator 16.0.0, SVG Export Plug-In . SVG Version: 6.00 Build 0)  -->
<!DOCTYPE svg PUBLIC "-//W3C//DTD SVG 1.1//EN" "http://www.w3.org/Graphics/SVG/1.1/DTD/svg11.dtd">
<svg version="1.1" id="Layer_1" xmlns="http://www.w3.org/2000/svg" xmlns:xlink="http://www.w3.org/1999/xlink" x="0px" y="0px"
	 width="203px" height="44px" viewBox="0 0 203 44" style="enable-background:new 0 0 203 44;" xml:space="preserve">
<g>
	<polygon style="fill:#FFFFFF;" points="49.401,27.913 49.401,17.079 42.386,17.079 42.386,19.591 42.386,25.366 42.386,27.913 	"/>
	<polygon style="fill:#FFFFFF;" points="30.324,28.374 40.246,28.381 40.477,23.054 40.477,21.661 39.685,16.157 30.324,16.076 	"/>
	<path style="fill:#A01D20;" d="M35.697,19.477c-1.179,0-1.976,1.141-1.976,2.946c0,1.833,0.773,2.944,1.951,2.944
		c1.35,0,1.938-1.501,1.938-2.9C37.61,20.849,37.01,19.477,35.697,19.477z"/>
	<path style="fill:#A01D20;" d="M35.746,27.807c-3.178,0-4.908-2.311-4.908-5.384c0-3.076,1.841-5.327,4.86-5.327
		c3.045,0,4.69,2.348,4.788,5.032V1.091H29.562v24.89c0,5.729-1.493,10.325-8.177,10.325c-7.283,0-8.357-5.192-8.357-11.16V1.091
		H2.046v26.262c0,2.926,0.119,8.895,5.311,12.953c2.328,1.85,6.626,3.999,13.848,3.999c6.864,0,13.967-1.73,17.31-7.818
		c1.85-3.403,1.97-7.343,1.97-9.969v-3.881C40.388,25.3,38.799,27.807,35.746,27.807z"/>
	<polygon style="fill:#A01D20;" points="53.418,34.814 53.418,1.091 42.376,1.091 42.376,17.146 48.78,17.146 48.78,19.679 
		45.272,19.679 45.272,21.484 48.226,21.484 48.226,24.018 45.272,24.018 45.272,27.856 42.376,27.856 42.376,43.23 67.924,43.23 
		72.818,34.814 	"/>
	<g>
		<g>
			<path style="fill:#000105;" d="M72.314,43.231c-0.658,0-1.26-0.515-1.261-1.264c0-0.728,0.579-1.266,1.261-1.266
				c0.732,0,1.268,0.575,1.268,1.263C73.582,42.668,73.031,43.231,72.314,43.231z M73.469,41.965c0-0.626-0.491-1.147-1.147-1.147
				c-0.649,0-1.154,0.519-1.154,1.15c0,0.646,0.52,1.15,1.149,1.15C72.967,43.118,73.469,42.604,73.469,41.965z M72.413,41.161
				c0.246,0,0.516,0.093,0.516,0.409c0,0.199-0.125,0.323-0.327,0.376c0.127,0.057,0.191,0.117,0.227,0.335
				c0.036,0.24,0.049,0.33,0.121,0.475h-0.323c-0.014-0.028-0.039-0.081-0.064-0.224c-0.007-0.031-0.032-0.206-0.04-0.244
				c-0.045-0.249-0.167-0.249-0.458-0.249v0.717h-0.285l0.001-1.595H72.413z M72.069,41.812h0.235c0.212,0,0.34-0.05,0.34-0.22
				c0-0.196-0.155-0.211-0.309-0.211h-0.266V41.812z"/>
		</g>
	</g>
	<g>
		<path style="fill:#000105;" d="M94.812,18.439c-5.637,0-9.169-3.871-9.169-8.927c0-4.814,3.411-9.024,9.073-9.024
			c5.517,0,9.097,3.992,9.097,8.903C103.812,14.278,100.426,18.439,94.812,18.439z M94.74,2.859c-3.338,0-5.709,2.831-5.709,6.605
			c0,3.581,2.177,6.532,5.758,6.532c3.702,0,5.638-3.339,5.638-6.508C100.426,5.593,98.006,2.859,94.74,2.859z"/>
		<path style="fill:#000105;" d="M120.252,18.004L109.123,5.666c0,0,0.096,11.952,0.096,12.338h-3.145V0.923h2.976l9.315,10.597
			c0,0-0.098-10.065-0.098-10.597h3.097v17.081H120.252z"/>
		<path style="fill:#000105;" d="M124.456,18.004V0.923h3.169v14.637h8.105l-1.404,2.443H124.456z"/>
		<path style="fill:#000105;" d="M137.088,18.004V0.923h3.193v17.081H137.088z"/>
		<path style="fill:#000105;" d="M157.504,18.004L146.375,5.666c0,0,0.097,11.952,0.097,12.338h-3.146V0.923h2.977l9.314,10.597
			c0,0-0.098-10.065-0.098-10.597h3.098v17.081H157.504z"/>
		<path style="fill:#000105;" d="M161.709,18.004V0.923h10.016v2.419h-6.848v4.548h5.904v2.419h-5.904v5.25h7.961l-1.404,2.443
			H161.709z"/>
		<path style="fill:#000105;" d="M86.32,43.094V26.013h3.169V40.65h8.105l-1.403,2.443H86.32z"/>
		<path style="fill:#000105;" d="M98.952,43.094V26.013h10.016v2.42h-6.847v4.548h5.903v2.42h-5.903v5.25h7.959l-1.402,2.443H98.952
			z"/>
		<path style="fill:#000105;" d="M123.6,43.094l-1.572-4.234h-6.799l-1.621,4.234h-3.193l6.896-17.081h3.097l6.653,17.081H123.6z
			 M118.713,29.545l-2.71,7.186h5.274L118.713,29.545z"/>
		<path style="fill:#000105;" d="M138.756,43.094l-4.523-7.403c-0.557,0.049-1.137,0.072-1.719,0.072h-0.895v7.331h-3.145V26.013
			h6.217c0.654,0,3.17,0.072,4.525,1.984c0.773,1.088,0.822,2.25,0.822,2.709c0,0.823-0.267,3.073-2.71,4.283l4.983,8.104H138.756z
			 M132.975,33.562c0.096,0,0.314,0.023,0.604,0.023c0.919,0,3.241-0.314,3.241-2.686c0-0.266-0.023-0.895-0.436-1.499
			c-0.701-1.017-1.959-1.064-3.048-1.064h-1.718v7.137L132.975,33.562z"/>
		<path style="fill:#000105;" d="M157.838,43.094l-11.129-12.339c0,0,0.096,11.951,0.096,12.339h-3.145V26.013h2.977l9.314,10.597
			c0,0-0.098-10.064-0.098-10.597h3.098v17.081H157.838z"/>
		<path style="fill:#000105;" d="M162.035,43.094V26.013h3.193v17.081H162.035z"/>
		<path style="fill:#000105;" d="M182.451,43.094l-11.129-12.339c0,0,0.098,11.951,0.098,12.339h-3.146V26.013h2.976l9.314,10.597
			c0,0-0.096-10.064-0.096-10.597h3.096v17.081H182.451z"/>
		<path style="fill:#000105;" d="M201.006,29.448c-0.773-0.436-2.564-1.476-5.008-1.476c-4.477,0-6.848,3.121-6.848,6.604
			c0,0.702,0.098,2.758,1.598,4.524c0.701,0.799,2.201,2.104,4.887,2.104c1.621,0,2.709-0.483,3.291-0.774
			c0,0,0.072-3.58,0.072-3.919h-4.379l1.426-2.347h6.002c0,0.605-0.121,7.742-0.121,7.742c-1.332,0.678-3.654,1.621-6.654,1.621
			c-6.049,0-9.459-4.017-9.459-8.928c0-3.58,1.959-5.758,2.951-6.604c1.088-0.968,3.363-2.42,7.016-2.42
			c0.969,0,2.879,0.121,5.227,0.92V29.448z"/>
	</g>
</g>
</svg>
